<?xml version="1.0"?>
<svg xmlns="http://www.w3.org/2000/svg" xmlns:xlink="http://www.w3.org/1999/xlink" version="1.1" id="Capa_1" x="0px" y="0px" width="512px" height="512px" viewBox="0 0 60.855 60.855" style="enable-background:new 0 0 60.855 60.855;" xml:space="preserve" class=""><g><g>
	<g>
		<path d="M60.855,0.132h-3.769l-1.492,1.491l-1.49-1.491h-3.572L49.04,1.623l-1.488-1.491h-3.573l-1.491,1.491l-1.491-1.491h-3.572    l-1.491,1.491l-1.491-1.491h-3.573l-1.491,1.491l-1.491-1.491h-4.154v26.253l-6.002,5.927l6.002,4.201v24.21h4.002l1.643-1.643    l1.643,1.643h3.268l1.644-1.643l1.643,1.643h3.269l1.643-1.643l1.642,1.643h3.27l1.643-1.643l1.643,1.643h3.269l1.643-1.643    l1.643,1.643h3.618V0.132H60.855z M59.293,59.159h-1.408l-2.29-2.289l-2.29,2.289H51.33l-2.289-2.29l-2.288,2.29h-1.976    l-2.289-2.29l-2.288,2.29h-1.976l-2.29-2.289l-2.289,2.289H31.67l-2.289-2.289l-2.29,2.289h-1.793V37.606l0.814,0.569l3.829-3.78    l-4.643-6.816V1.695h1.945l2.137,2.139l2.138-2.139h2.278l2.139,2.137l2.139-2.137h2.278l2.138,2.137l2.139-2.137h2.278    l2.138,2.137l2.139-2.137h2.279L55.6,3.832l2.14-2.137h1.56v57.464H59.293z" data-original="#000000" class="active-path" data-old_color="#d47d00" fill="#d47d00"/>
		<path d="M39.462,28.935c-0.25-0.43-0.446-1.277-0.586-2.539H34.82c-0.03,2.774,0.811,4.737,2.524,5.889    c0.971,0.64,2.443,1.071,4.415,1.29v2.991h1.458v-3.021c1.553-0.12,2.896-0.531,4.026-1.231c1.854-1.143,2.779-2.975,2.779-5.499    c0-1.912-0.675-3.395-2.019-4.447c-0.817-0.631-2.413-1.357-4.787-2.179v-5.724c0.989,0.07,1.674,0.46,2.048,1.172    c0.218,0.411,0.366,1.062,0.446,1.953h3.951c-0.061-2.403-0.932-4.142-2.617-5.212c-0.926-0.67-2.202-1.072-3.828-1.202V9.149    h-1.459v1.998c-1.021,0.08-1.797,0.205-2.327,0.376c-0.871,0.271-1.662,0.761-2.374,1.472c-0.552,0.551-0.979,1.207-1.284,1.967    c-0.305,0.762-0.459,1.608-0.459,2.539c0,1.413,0.394,2.619,1.18,3.621c0.786,1.001,2.135,1.782,4.049,2.344l1.216,0.36v6.415    C40.618,30.041,39.853,29.605,39.462,28.935z M43.217,24.322c0.831,0.31,1.422,0.61,1.769,0.901    c0.582,0.501,0.875,1.183,0.875,2.042c0,1.131-0.312,1.928-0.937,2.389c-0.354,0.26-0.926,0.441-1.707,0.541V24.322z     M40.138,19.02c-0.631-0.491-0.947-1.156-0.947-1.998c0-0.771,0.211-1.379,0.632-1.825c0.421-0.445,1.066-0.678,1.937-0.699v5.273    C41.029,19.54,40.487,19.29,40.138,19.02z" data-original="#000000" class="active-path" data-old_color="#d47d00" fill="#d47d00"/>
		<rect x="31.312" y="46.859" width="22.049" height="2.083" data-original="#000000" class="active-path" data-old_color="#d47d00" fill="#d47d00"/>
		<polygon points="0.723,12.46 16.857,31.519 23.403,25.056 4.552,8.681   " data-original="#000000" class="active-path" data-old_color="#d47d00" fill="#d47d00"/>
		<path d="M36.212,44.927c0,0-2.198-2.905-1.847-5.908l-4.55-3.551l-2.627,2.642l3.088,4.149    C30.276,42.259,34.115,42.461,36.212,44.927z M32.973,40.482c-0.005,0.017-0.006,0.033-0.011,0.049    c-0.023,0.067-0.058,0.127-0.096,0.185c-0.022,0.034-0.042,0.07-0.069,0.101c-0.031,0.033-0.067,0.061-0.104,0.09    c-0.05,0.038-0.098,0.075-0.155,0.103c-0.029,0.014-0.061,0.02-0.091,0.029c-0.052,0.018-0.1,0.045-0.157,0.051    c-0.024,0.002-0.047-0.006-0.071-0.006c-0.009,0-0.016,0.004-0.022,0.004c-0.018,0-0.034-0.01-0.051-0.01    c-0.085-0.008-0.165-0.021-0.242-0.051c-0.024-0.011-0.046-0.024-0.069-0.037c-0.066-0.034-0.126-0.071-0.181-0.122    c-0.03-0.028-0.053-0.06-0.078-0.092c-0.034-0.044-0.068-0.087-0.092-0.14c-0.03-0.059-0.045-0.12-0.061-0.186    c-0.005-0.024-0.02-0.044-0.021-0.069c-0.001-0.01,0.003-0.021,0.003-0.03c-0.003-0.028-0.017-0.053-0.015-0.082    c0-0.068,0.023-0.128,0.038-0.19c0.002-0.006,0.002-0.014,0.005-0.02c0.097-0.345,0.4-0.602,0.774-0.599    c0.45,0.003,0.812,0.37,0.809,0.818C33.015,40.351,32.99,40.415,32.973,40.482z" data-original="#000000" class="active-path" data-old_color="#d47d00" fill="#d47d00"/>
		<path d="M0,11.802l3.531-3.486C-0.107,8.283,0,11.802,0,11.802z" data-original="#000000" class="active-path" data-old_color="#d47d00" fill="#d47d00"/>
		<path d="M53.914,41.565c-1.478,0.864-2.944,1.709-4.598,2.14c-0.087-0.543-0.173-1.085-0.283-1.625    c-0.031-0.321-0.311-0.612-0.659-0.502c-1.945,0.614-3.562,1.874-5.468,2.557c-0.155-0.71-0.309-1.419-0.467-2.128    c-0.077-0.348-0.479-0.454-0.764-0.312c-1.699,0.838-3.415,1.636-5.145,2.408c-0.612,0.273-0.082,1.172,0.526,0.899    c1.516-0.679,3.021-1.381,4.513-2.107c0.15,0.686,0.299,1.371,0.45,2.055c0.062,0.276,0.379,0.44,0.641,0.364    c1.954-0.564,3.562-1.809,5.439-2.532c0.095,0.569,0.21,1.129,0.3,1.713c0.047,0.296,0.389,0.413,0.642,0.364    c1.982-0.385,3.673-1.388,5.398-2.397C55.02,42.127,54.495,41.227,53.914,41.565z" data-original="#000000" class="active-path" data-old_color="#d47d00" fill="#d47d00"/>
	</g>
</g></g> </svg>
