<?xml version="1.0"?>
<svg xmlns="http://www.w3.org/2000/svg" xmlns:xlink="http://www.w3.org/1999/xlink" version="1.1" id="Capa_1" x="0px" y="0px" viewBox="0 0 88.5 88.5" style="enable-background:new 0 0 88.5 88.5;" xml:space="preserve" width="512px" height="512px"><g><g>
	<rect x="19.875" y="31.25" width="20" height="4" data-original="#231F20" class="active-path" data-old_color="#cd7d0e" fill="#cd7d0e"/>
	<rect x="19.875" y="39.25" width="40" height="4" data-original="#231F20" class="active-path" data-old_color="#cd7d0e" fill="#cd7d0e"/>
	<rect x="19.875" y="47.25" width="40" height="4" data-original="#231F20" class="active-path" data-old_color="#cd7d0e" fill="#cd7d0e"/>
	<rect x="19.875" y="55.25" width="40" height="4" data-original="#231F20" class="active-path" data-old_color="#cd7d0e" fill="#cd7d0e"/>
	<rect x="19.875" y="63.25" width="40" height="4" data-original="#231F20" class="active-path" data-old_color="#cd7d0e" fill="#cd7d0e"/>
	<path d="M61.291,0H18.625v12.25h-8.75V88.5h60V76.25h0.498h8.252V13L61.291,0z M65.875,84.5h-52V16.25h4.75   h4h27.25v12h16V84.5z M74.625,72.25h-4.252h-0.498v-47l-17.334-13H22.625V4h36v12h16V72.25z" data-original="#231F20" class="active-path" data-old_color="#cd7d0e" fill="#cd7d0e"/>
</g></g> </svg>
